<svg width="28" height="28" viewBox="0 0 28 28" fill="none" xmlns="http://www.w3.org/2000/svg">
<path d="M14 3C7.37243 3 2 7.23783 2 12.4656C2 15.8686 4.27654 18.8503 7.69259 20.5189C7.44143 21.4543 6.78371 23.9063 6.65192 24.4311C6.48967 25.0824 6.89126 25.0737 7.15423 24.8981C7.36062 24.7611 10.4428 22.6707 11.7726 21.7681C12.4943 21.8748 13.2385 21.9313 14 21.9313C20.6276 21.9313 26 17.6928 26 12.4656C26 7.23845 20.6276 3 14 3Z" stroke="#444444" stroke-width="1.5" stroke-linecap="round" stroke-linejoin="round"/>
<path d="M9.72257 9.86475H6.59238C6.29794 9.86475 6.06006 10.1032 6.06006 10.3971C6.06006 10.691 6.2985 10.9294 6.59238 10.9294H7.6099V14.679C7.6099 14.8154 7.66536 14.9496 7.76295 15.0466C7.85832 15.1431 7.99196 15.1985 8.12892 15.1985H8.2426C8.37901 15.1985 8.51209 15.1431 8.60802 15.0466C8.70561 14.9496 8.76106 14.8159 8.76106 14.679V10.9294H9.72202C10.0165 10.9294 10.2549 10.691 10.2549 10.3971C10.2549 10.1032 10.017 9.86475 9.72257 9.86475Z" fill="#444444"/>
<path d="M17.2448 14.1971H15.7892V10.3677C15.7892 10.0483 15.5308 9.78992 15.212 9.78992C14.8932 9.78992 14.6348 10.0483 14.6348 10.3677V14.4955C14.6348 14.5276 14.6386 14.5576 14.6436 14.5881C14.6381 14.618 14.6348 14.6491 14.6348 14.6801C14.6348 14.9474 14.8505 15.1636 15.1177 15.1636H17.2448C17.5127 15.1636 17.7278 14.9474 17.7278 14.6801C17.7278 14.4128 17.5121 14.1971 17.2448 14.1971Z" fill="#444444"/>
<path d="M21.8962 14.3729L20.2743 12.2425L21.7398 10.7764C21.9384 10.5784 21.9384 10.2563 21.7398 10.0577C21.5413 9.85923 21.2197 9.85923 21.0207 10.0577L19.2063 11.8721V10.3677C19.2063 10.0483 18.9479 9.78992 18.6291 9.78992C18.3102 9.78992 18.0513 10.0483 18.0513 10.3677V14.6224C18.0513 14.9418 18.3097 15.2002 18.6291 15.2002C18.9485 15.2002 19.2063 14.9424 19.2063 14.6224V13.3099L19.5362 12.9805L21.0706 14.994C21.2413 15.2219 21.5657 15.269 21.7936 15.0965C22.0215 14.9252 22.0676 14.6014 21.8962 14.3729Z" fill="#444444"/>
<path d="M14.2025 14.5109L12.6427 10.2434C12.6427 10.2434 12.6388 10.2401 12.6377 10.2385C12.5379 9.97839 12.2501 9.78931 11.9069 9.78931C11.5259 9.78931 11.211 10.0222 11.1483 10.3266C11.1378 10.3494 11.1272 10.3721 11.1184 10.3965L9.5846 14.5109C9.48978 14.781 9.63174 15.076 9.90067 15.1708C10.1702 15.2656 10.4657 15.1237 10.5605 14.8542L10.8261 14.0967H12.961L13.226 14.8542C13.3209 15.1237 13.6164 15.2656 13.8859 15.1708C14.1554 15.076 14.2974 14.781 14.2025 14.5109ZM11.1649 13.1297L11.8825 11.0824C11.8908 11.0824 11.8975 11.0846 11.9058 11.0846L12.6227 13.1297H11.1649Z" fill="#444444"/>
</svg>
