<svg width="28" height="28" viewBox="0 0 28 28" fill="none" xmlns="http://www.w3.org/2000/svg">
<path d="M1.67949 20.368C0.773505 16.1692 0.773505 11.8306 1.67949 7.63181C1.79853 7.20542 2.02853 6.81679 2.34688 6.50416C2.66523 6.19153 3.06095 5.96565 3.49514 5.84875C10.451 4.71708 17.549 4.71708 24.5049 5.84875C24.939 5.96565 25.3348 6.19153 25.6531 6.50416C25.9715 6.81679 26.2015 7.20542 26.3205 7.63181C27.2265 11.8306 27.2265 16.1692 26.3205 20.368C26.2015 20.7944 25.9715 21.183 25.6531 21.4957C25.3348 21.8083 24.939 22.0342 24.5049 22.1511C17.549 23.283 10.451 23.283 3.49514 22.1511C3.06095 22.0342 2.66523 21.8083 2.34688 21.4957C2.02853 21.183 1.79853 20.7944 1.67949 20.368Z" stroke="#444444" stroke-width="1.5" stroke-linecap="round" stroke-linejoin="round"/>
<path d="M11 18L18 14L11 10V18Z" stroke="#444444" stroke-width="1.5" stroke-linecap="round" stroke-linejoin="round"/>
</svg>
