<svg width="28" height="28" viewBox="0 0 28 28" fill="none" xmlns="http://www.w3.org/2000/svg">
<path d="M19.5 3H8.5C5.46243 3 3 5.46243 3 8.5V19.5C3 22.5376 5.46243 25 8.5 25H19.5C22.5376 25 25 22.5376 25 19.5V8.5C25 5.46243 22.5376 3 19.5 3Z" stroke="#444444" stroke-width="1.5" stroke-linecap="round" stroke-linejoin="round"/>
<path d="M17.9567 13.4133C18.0801 14.2455 17.938 15.0955 17.5505 15.8423C17.163 16.5891 16.5499 17.1947 15.7984 17.5729C15.0468 17.9512 14.1952 18.0829 13.3645 17.9492C12.5339 17.8155 11.7665 17.4233 11.1716 16.8284C10.5767 16.2335 10.1845 15.4661 10.0508 14.6355C9.91714 13.8048 10.0488 12.9532 10.4271 12.2016C10.8053 11.4501 11.4109 10.837 12.1577 10.4495C12.9045 10.062 13.7545 9.91986 14.5867 10.0433C15.4357 10.1692 16.2216 10.5647 16.8284 11.1716C17.4353 11.7784 17.8308 12.5643 17.9567 13.4133Z" stroke="#444444" stroke-width="1.5" stroke-linecap="round" stroke-linejoin="round"/>
<path d="M19 9H19.0117" stroke="#444444" stroke-width="1.75" stroke-linecap="round" stroke-linejoin="round"/>
</svg>
