<svg width="28" height="28" viewBox="0 0 28 28" fill="none" xmlns="http://www.w3.org/2000/svg">
<path d="M17.4998 20H11.6665" stroke="#444444" stroke-width="1.5" stroke-linejoin="round"/>
<path d="M20.9998 16.3334H11.6665" stroke="#444444" stroke-width="1.5" stroke-linejoin="round"/>
<path d="M5.2 25H22.8C23.3835 25 23.9431 24.7682 24.3556 24.3556C24.7682 23.9431 25 23.3835 25 22.8V5.2C25 4.61652 24.7682 4.05695 24.3556 3.64436C23.9431 3.23178 23.3835 3 22.8 3H9.6C9.01652 3 8.45695 3.23178 8.04437 3.64436C7.63179 4.05695 7.4 4.61652 7.4 5.2V22.8C7.4 23.3835 7.16822 23.9431 6.75564 24.3556C6.34306 24.7682 5.78348 25 5.2 25ZM5.2 25C4.61652 25 4.05695 24.7682 3.64436 24.3556C3.23178 23.9431 3 23.3835 3 22.8V12.9C3 12.3165 3.23178 11.7569 3.64436 11.3444C4.05695 10.9318 4.61652 10.7 5.2 10.7H7.4" stroke="#444444" stroke-width="1.5" stroke-linecap="round" stroke-linejoin="round"/>
<path d="M13.3022 7H12V13H16V11.8318H13.3022V7Z" fill="#444444"/>
<path d="M18.725 10.6929H19.7916V11.7114C19.5956 11.7887 19.212 11.866 18.847 11.866C17.6671 11.866 17.2737 11.2501 17.2737 9.99976C17.2737 8.74943 17.6478 8.10548 18.8277 8.10548C19.4828 8.10548 19.8576 8.31717 20.1663 8.72087L20.9815 7.95224C20.4851 7.22129 19.614 7 18.7996 7C16.9646 7 16 8.0288 16 9.99016C16 11.9515 16.8706 13 18.7904 13C19.67 13 20.5314 12.7695 21 12.4329V9.6059H18.725V10.6929Z" fill="#444444"/>
</svg>
